<?xml version="1.0" encoding="utf-8"?>
<!-- Generator: Adobe Illustrator 17.1.0, SVG Export Plug-In . SVG Version: 6.00 Build 0)  -->
<!DOCTYPE svg PUBLIC "-//W3C//DTD SVG 1.1//EN" "http://www.w3.org/Graphics/SVG/1.1/DTD/svg11.dtd">
<svg version="1.1" id="Layer_1" xmlns="http://www.w3.org/2000/svg" xmlns:xlink="http://www.w3.org/1999/xlink" x="0px" y="0px"
	 viewBox="0 0 1200 214.6" enable-background="new 0 0 1200 214.6" xml:space="preserve">
<g>
	<path fill="#000" d="M561.9,176.7c-15.4-0.2-26.6-2.6-36.9-8.6c-3.3-1.9-4.8-3.9-2.4-7.5c2-2.9,1.6-7.9,4.8-8.9
		c2.9-1,5.6,2.9,8.7,4.2c11,4.8,22.3,7.6,34.3,3.9c6.1-1.9,9.6-5.9,9.9-11c0.2-5.2-2.7-9.1-8.8-11.8c-9.2-4.1-19.3-5.4-28.7-8.8
		c-13.4-4.9-19.7-13-19.7-26.1c0-12.8,8-24.1,20.3-27.8c15.5-4.7,30.9-3.6,45.7,3.2c3.6,1.6,5.5,3.4,3.1,7.6c-1.6,2.9-1.7,7.3-4,8.9
		c-2.7,1.9-5.7-2.1-8.6-3.2c-9.4-3.6-18.9-5.6-28.8-2.3c-6.3,2.1-9.7,6-9.9,11.5c-0.2,5.7,2.7,9.6,9.1,12c9.7,3.7,20,5.2,29.7,9.1
		c10.2,4.1,17.3,10.9,18.1,22.4c0.8,12.1-3.9,21.5-14.7,27.7C575.5,175.6,567.1,176.8,561.9,176.7z"/>
	<path fill="#000" d="M389.1,138.3c-0.6,21.7-16.1,37.4-37.6,38.2c-8.5,0.3-16.9-0.2-24.7-4c-13.5-6.6-19.4-18.4-20.9-32.6
		c-2.1-21.2-0.6-42.5-1-63.7c0-2.4,0.8-3.7,3.3-3.4c0.2,0,0.4,0,0.5,0c14.6-0.8,14.6-0.8,14.6,13.8c0,14.6,0,29.2,0,43.7
		c0,3.8,0.1,7.7,1,11.5c4.4,17.3,25.7,24.2,39.3,12.6c4.2-3.6,6-8.5,7.2-13.7c0.3-1.2,0-2.5,1-3.5c0.9-0.6,1.3-2,2.2-2.2
		c9.2-1.5,7.3-9.5,7.7-14.9c0.9-12.1,0.2-24.2,0.3-36.4c0-2.7-0.9-7.2,2.1-7.3c3.8-0.1,3,4.4,3,7.3c0.3,15.8-0.5,31.6,0.6,47.4
		c0.1,2.1,0.3,4.2-0.5,6.3c-0.2,0.4-1.3,0.8-0.4,1.3C387.4,138.8,388.4,138.2,389.1,138.3z"/>
	<path fill="#000" d="M109.6,123.7c0-15.3,0.1-30.6-0.1-45.9c0-3.8,0.8-5.2,4.9-5.2c13,0.1,13-0.1,13,12.9
		c0,22.9,0.1,45.7-0.1,68.6c0,4.4,1.2,5.7,5.6,5.6c13.2-0.3,26.4,0,39.6-0.2c4-0.1,5.7,0.9,5.6,5.3c-0.1,10.5,0.1,10.5-10.6,10.5
		c-17.6,0-35.2-0.1-52.7,0.1c-4.2,0.1-5.4-1.2-5.3-5.4C109.8,154.7,109.6,139.2,109.6,123.7z"/>
	<path fill="#000" d="M389.1,138.3c-2.8,1-1.4,4-3.3,6.5c-3-6.1,3.4-10.9,1.3-16.3c-2.1-5.5-0.9-11.4-1-17.2
		c-0.2-5.8,0.1-11.6-0.1-17.4c-0.1-5.6,0.5-11.4-0.6-18.2c-1.8,2.1-1.4,3.5-1.4,4.8c0,9.5-0.4,18.9,0.1,28.4
		c0.4,8.7-1.2,17.2-2.2,25.7c-0.2,1.7-1.8,3.3-2.5,2.3c-2.8-4.1-4.9,0.6-7.2,0.2c0-19.8,0.2-39.7,0-59.5c0-3.9,1.1-5.1,5-5.1
		c12.3,0.1,12.3-0.1,12.3,12C389.4,102.5,389.2,120.4,389.1,138.3z"/>
	<path fill="#000" d="M1197.4,175.1c-21.6,0.1-43.2,0.2-64.8,0.3c-2.8,0-3.6-1.2-3.6-3.8c0.1-31.6,0.1-63.2,0-94.8
		c0-2.8,0.7-4,3.8-4.1c14.1-0.6,14.1-0.7,14.1,13.4c0,22.3,0,44.6,0,66.9c0,6.7,0,6.7,7,6.7c12.5,0,24.9,0,37.4,0
		c2.1,0,4.2-0.4,6.1,0.9C1197.4,165.4,1197.4,170.3,1197.4,175.1z"/>
	<path fill="#000" d="M715.1,31.8c16.5,0.6,29.4,8.2,40,20.3c2.9,3.3,5.5,7,7.1,11c1.6,4.1,3.7,4.8,8,4
		c14.8-2.8,28.6-0.4,40.6,9.5c6.4,5.3,10.7,12,13.6,19.7c1.2,3.2,3.2,5.2,6.4,6.4c12.5,4.6,21.5,12.9,26.9,25.2
		c2.8,8.3,4.8,16.8,2.6,25.6c-1.2,5-2.1,5.2-6.1,1.9c-1.3-1.1-2.5-2.4-4.1-3.2c-0.5-0.3-1-0.7-1.5-1.1c-11.2-6.3-22.2-6.5-32.6,1.3
		c-10.6,7.9-13.5,18.8-10.6,31.5c1.6,6.8,1.3,7.3-5.7,7.3c-46.2,0-92.5,0-138.7,0c-4.2,0-8.4-0.3-12.3-2.1
		c-9.9-3.7-18.6-8.8-24.9-17.7c-19.6-27.7-2.3-60.7,23.6-68c4-1.1,4.9-2.8,4.4-6.6c-4.4-32.1,19.4-59.9,49.1-64
		C701.6,32.6,711,31.8,715.1,31.8z M786.9,123.8c-0.1-29.7-24.8-54.1-54.7-54.1c-30.3,0-54.1,24.2-54.1,54.8c0,30.2,24,54,54.3,53.9
		C762.6,178.5,787,154,786.9,123.8z"/>
	<path fill="#000" d="M414.4,124c0-15.3,0.1-30.6-0.1-45.9c0-4,0.8-5.5,5.2-5.4c13.2,0.3,26.4,0,39.5,0.2
		c24,0.3,42.4,13.9,48.3,37.1c6.8,26.8-4.9,55.5-34.5,63.5c-4.6,1.2-9.2,2-14,2c-13,0-26-0.2-39,0.1c-4.5,0.1-5.6-1.4-5.5-5.7
		C414.6,154.5,414.4,139.2,414.4,124z M432.2,155.2c-0.1,3.5,1.2,4.6,4.6,4.5c7.7-0.2,15.5,0,23.2-0.2c4.8-0.1,9.3-1.4,13.6-3.6
		c12-6.3,17-17.1,17.4-29.8c0.7-18.9-8-34-28-37.2c-8.4-1.3-17.2-0.2-25.8-0.5c-4.1-0.2-5.1,1.4-5,5.2c0.2,10,0.1,20,0.1,30
		C432.3,134.2,432.4,144.7,432.2,155.2z"/>
	<path fill="#000" d="M286.9,124.2c0,30.8-21.5,52.4-51.9,52.4c-30.5,0-51.7-21.9-51.7-53.1c0-30.4,21.8-51.9,52.4-51.9
		C265.5,71.6,286.9,93.6,286.9,124.2z M248.8,157.3c13.1-5.7,21.1-20.1,20.1-36.3c-1-16.8-13-30.2-28.8-32.3
		C223,86.5,207.7,96,203,112.1c-4.3,14.7-1.8,34.8,18.4,45.2C230.5,161.3,239.7,161.3,248.8,157.3z"/>
	<path fill="#000" d="M260.3,164.1c-1,2.3-3.3,4.4-5.7,5.1c-2.6,0.8-5.8-0.1-8.7-0.6c-1.6-0.2-1.5-1.8-1.3-3
		c0.6-3.9,10.6-7.8,13.7-5.5C259.6,161,260.4,162.1,260.3,164.1z"/>
	<path fill="#000" d="M221.4,157.3c9.1,3,18.3,3,27.4,0c-0.5,1-1.2,1.8-2.3,2c-7.6,1.8-15.2,1.8-22.8,0
		C222.6,159.1,221.9,158.3,221.4,157.3z"/>
	<path fill="#000" d="M579.8,167.6c-8.8,7.5-18.2,3.9-27.4,3.3c-1.3-0.1-1.7-1.1-1.6-2.3c0.1-1.3,1.1-1.5,2.2-1.8
		c5.3-1.5,10.9-0.4,16.1-1.3C573,164.9,576.2,165.4,579.8,167.6z"/>
	<path fill="#000" d="M925.1,71.6c14.1-0.3,25.7,4,35.4,13.6c2.8,2.7,3.7,4.8,0.2,7.6c-2.6,2.1-4.5,5.7-7.3,6.6
		c-3.5,1.1-5.1-3.5-7.7-5.3c-18.1-12.3-49.6-5.1-53.1,25.6c-2.9,26.3,18.5,45.2,43.7,38.7c5.1-1.3,9.5-3.8,13-7.6
		c2.3-2.5,3.9-2.6,6.4-0.3c9.4,8.8,9.5,10.9-1.4,17.9c-16.4,10.5-34,11.3-51.3,3.3c-18.1-8.4-27.2-23.7-28.5-43.6
		c-1.3-19.4,5.1-35.6,21-47.3C904.5,74.2,914.7,71.3,925.1,71.6z"/>
	<path fill="#000" d="M981.4,124.1c0-15.4,0.1-30.9-0.1-46.3c-0.1-3.9,1-5.1,5-5.1c12.9,0.1,12.9-0.1,12.9,13
		c0,28.1-0.1,56.2,0.1,84.3c0,4.4-1.2,5.7-5.6,5.6c-12.3-0.2-12.3,0-12.3-12.4C981.4,150.1,981.4,137.1,981.4,124.1z"/>
	<path fill="#000" d="M1106,175.4c-9.9-0.2-8.2,1.8-12.1-8.5c-0.6-1.5-1.5-2.8-1.8-4.4c-1.8-9.4-7.5-11.7-16.6-10.9
		c-10.3,0.9-20.7,0.3-31.1,0.1c-3.6-0.1-5.8,0.8-7,4.6c-1.6,5-3.9,9.8-5.7,14.7c-1.1,3-2.7,4.4-6.1,4.4c-14.5,0.1-14.5,0.3-8.7-13.2
		c11.9-27.9,23.8-55.9,35.4-83.9c1.7-4.1,3.7-5.4,8.3-5.8c8.7-0.8,13.2,1.9,16.6,10.5c11.8,29.7,24.6,58.9,37.1,88.3
		c1.2,2.9,1.1,4.3-2.5,4.1C1109.8,175.3,1107.9,175.4,1106,175.4z M1062.7,94.1c-4.7,11.5-9.5,22.9-14.2,34.4
		c-0.6,1.5-1.2,2.9-1.7,4.4c-0.9,2.8,0.7,3.3,3,3.3c6.1,0,12.3,0,18.4,0c13.2,0,13.2,0,8.2-12.5c-0.2-0.5-0.3-1-0.5-1.5
		c-3.9-9.4-7.7-18.7-11.6-28.1C1063.8,94.1,1063.2,94.1,1062.7,94.1z"/>
	<path fill="#000" d="M688.7,124.5c-0.1-24.2,19.3-44,43-44.2c24.6-0.1,44.7,19.6,44.6,43.9c-0.1,24-19.6,43.7-43.6,43.7
		C707.9,168,688.8,149.1,688.7,124.5z M731.5,110.7c-2.9,1.6-5.9,3.2-8.7,4.9c-1.9,1.2-3.6,1.5-5.9,0.4c-4.6-2.2-8.6-0.8-11.7,3
		c-3,3.7-3.3,7.7-0.3,11.6c3.1,4,7.2,5.8,12,3.4c2.2-1,3.8-0.9,5.8,0.4c2.5,1.6,5.3,2.8,7.9,4.3c2.4,1.4,4.4,2.5,3.9,6.3
		c-0.7,5.1,5.2,10.1,10.2,9.8c5.4-0.3,9.8-5.2,9.6-10.6c-0.3-5.4-5.5-10.6-10.7-9c-8,2.4-12.9-2.9-18.7-5.8
		c-3.5-1.7-3.2-6.4-1.2-7.5c6.1-3.5,11.1-9.8,19.6-8c5.7,1.2,10.8-3.6,11.1-9.3c0.3-5.8-4.5-10.6-10.2-10.4
		c-5.5,0.2-10.1,5.5-9.7,11.5C736.5,108.7,733.7,109.5,731.5,110.7z"/>
	<circle fill="#000" cx="833" cy="176" r="26.2"/>
	<path fill="#000" d="M53.2,71.7c14.1-0.3,25.7,4,35.4,13.6c2.8,2.7,3.7,4.8,0.2,7.6c-2.6,2.1-4.5,5.7-7.3,6.6
		c-3.5,1.1-5.1-3.5-7.7-5.3c-18.1-12.3-49.6-5.1-53.1,25.6C17.7,146,39.2,165,64.4,158.4c5.1-1.3,9.5-3.8,13-7.6
		c2.3-2.5,3.9-2.6,6.4-0.3c9.4,8.8,9.5,10.9-1.4,17.9c-16.4,10.5-34,11.3-51.3,3.3C13.1,163.4,4,148.1,2.7,128.2
		c-1.3-19.4,5.1-35.6,21-47.3C32.6,74.3,42.8,71.4,53.2,71.7z"/>
</g>
</svg>
